{"title":"Barbie A Fashion Fairytale(2010)DVDRip[Hindi-Eng]DD2.1-DGrea8","uid":9113358,"size":851142247,"categoryP":"video","categoryS":"movies_dvdr","magnet":"?xt=urn:btih:a91022feb91c1027b252d070834c1369b4e6f37e&amp;dn=+Barbie+A+Fashion+Fairytale%282010%29DVDRip%5BHindi-Eng%5DDD2.1-DGrea8&amp;tr=udp%3A%2F%2Ftracker.openbittorrent.com%3A80&amp;tr=udp%3A%2F%2Fopen.demonii.com%3A1337&amp;tr=udp%3A%2F%2Ftracker.coppersurfer.tk%3A6969&amp;tr=udp%3A%2F%2Fexodus.desync.com%3A6969","seeders":5,"leechers":1,"uploader":"DGrea8","files":9,"time":1382990115,"description":"       Barbie A Fashion Fairytale(2010)DVDRip[Hindi(224Kbps)-Eng]DD2.1-DGrea8\n\n\nCast Info:. \n\nDiana Kaarina\t ...\tBarbie (voice)\nAdrian Petriw\t ...\tKen (voice)\nTabitha St. Germain\t ...\tMarie-Alecia 'Alice' (voice)\nPatricia Drake\t ...\tAunt Millicent (voice)\nAlexa Devine\t ...\tJacqueline (voice)\nShannon Chan-Kent\t ...\tDelphine (voice)\nMaryke Hendrikse\t ...\tTeresa / Incidental (voice)\nKandyse McClure\t ...\tGrace (voice) (as Kandyse Mcclure)\nBritt Irvin\t ...\tRaquelle (voice)\nChiara Zanni\t ...\tShyne (voice)\nKelly Metzger\t ...\tShimmer (voice)\nAndrea Libman\t ...\tGlimmer (voice)\nBrandy Kopp\t ...\tSequin (voice)\nCharles Fathy\t ...\tParis Taxi Driver / Jacques (voice)\nAnnick Obonsawin\t ...\tJilliana (voice) (as Annick Obansawin)\n\n\n\nGeneral Info:. \n\nDirector:William Lau\nWriters: Elise Allen (screenplay)\nStars: Diana Kaarina, Adrian Petriw, Tabitha St. Germain \nRelease Date:14 September 2010 (USA)\nGenres:Animation | Family\n\n\nVideo Info:. \n\n\nVideo\nID : 1\nFormat : AVC\nFormat/Info : Advanced Video Codec\nFormat profile : &lt;a class=&quot;__cf_email__&quot; href=&quot;/cdn-cgi/l/email-protection&quot; data-cfemail=&quot;2c614d45426c601f021c&quot;&gt;[email&amp;#160;protected]&lt;/a&gt;&lt;script cf-hash='f9e31' type=&quot;text/javascript&quot;&gt;\n/* &lt;![CDATA[ */!function(){try{var t=&quot;currentScript&quot;in document?document.currentScript:function(){for(var t=document.getElementsByTagName(&quot;script&quot;),e=t.length;e--;)if(t[e].getAttribute(&quot;cf-hash&quot;))return t[e]}();if(t&amp;&amp;t.previousSibling){var e,r,n,i,c=t.previousSibling,a=c.getAttribute(&quot;data-cfemail&quot;);if(a){for(e=&quot;&quot;,r=parseInt(a.substr(0,2),16),n=2;a.length-n;n+=2)i=parseInt(a.substr(n,2),16)^r,e+=String.fromCharCode(i);e=document.createTextNode(e),c.parentNode.replaceChild(e,c)}}}catch(u){}}();/* ]]&gt; */&lt;/script&gt;\nFormat settings, CABAC : Yes\nFormat settings, ReFrames : 4 frames\nMuxing mode : Header stripping\nCodec ID : V_MPEG4/ISO/AVC\nDuration : 1h 22mn\nBit rate : 931 Kbps\nWidth : 704 pixels\nHeight : 384 pixels\nDisplay aspect ratio : 16:9\nFrame rate mode : Variable\nFrame rate : 25.000 fps\nColor space : YUV\nChroma subsampling : 4:2:0\nBit depth : 8 bits\nScan type : Progressive\n\n\nAudio Info:. \n\nAudio #1\nID : 2\nFormat : AC-3\nFormat/Info : Audio Coding 3\nFormat profile : Dolby Digital\nMode extension : CM (complete main)\nMuxing mode : Header stripping\nCodec ID : A_AC3\nDuration : 1h 22mn\nBit rate mode : Constant\nBit rate : 224 Kbps\nChannel(s) : 2 channels\nChannel positions : Front: L R\nSampling rate : 48.0 KHz\nBit depth : 16 bits\nCompression mode : Lossy\nStream size : 132 MiB (16%)\nLanguage : Hindi\n\nAudio #2\nID : 3\nFormat : AC-3\nFormat/Info : Audio Coding 3\nFormat profile : Dolby Digital\nMode extension : CM (complete main)\nMuxing mode : Header stripping\nCodec ID : A_AC3\nDuration : 1h 22mn\nBit rate mode : Constant\nBit rate : 224 Kbps\nChannel(s) : 2 channels\nChannel positions : Front: L R\nSampling rate : 48.0 KHz\nBit depth : 16 bits\nCompression mode : Lossy\nStream size : 132 MiB (16%)\nLanguage : English\n\nSubtitle : English\n\n\nScreen Shoots:-\n &lt;a href=&quot;\nhttp://img36.imageshack.us/img36/8505/6fbc.jpg&quot; rel=&quot;nofollow&quot; target=&quot;_NEW&quot;&gt;\nhttp://img36.imageshack.us/img36/8505/6fbc.jpg&lt;/a&gt;\n &lt;a href=&quot;\nhttp://img801.imageshack.us/img801/8435/2wju.jpg&quot; rel=&quot;nofollow&quot; target=&quot;_NEW&quot;&gt;\nhttp://img801.imageshack.us/img801/8435/2wju.jpg&lt;/a&gt;\n &lt;a href=&quot;\nhttp://img201.imageshack.us/img201/1324/88u7.jpg&quot; rel=&quot;nofollow&quot; target=&quot;_NEW&quot;&gt;\nhttp://img201.imageshack.us/img201/1324/88u7.jpg&lt;/a&gt;\n\n\n\nNote:-- Check The Torrent\n\n\nCheck The Sample Video In This Torrent","torrent":{"xt":"urn:btih:a91022feb91c1027b252d070834c1369b4e6f37e","amp;dn":"+Barbie+A+Fashion+Fairytale%282010%29DVDRip%5BHindi-Eng%5DDD2.1-DGrea8","amp;tr":["udp%3A%2F%2Ftracker.openbittorrent.com%3A80","udp%3A%2F%2Fopen.demonii.com%3A1337","udp%3A%2F%2Ftracker.coppersurfer.tk%3A6969","udp%3A%2F%2Fexodus.desync.com%3A6969"],"infoHash":"a91022feb91c1027b252d070834c1369b4e6f37e","infoHashBuffer":{"type":"Buffer","data":[169,16,34,254,185,28,16,39,178,82,208,112,131,76,19,105,180,230,243,126]},"announce":[],"urlList":[]}}